Coordinates
version=1
nRows=17
nColumns=40
inDegrees=yes

Units are S.I. units (second, meters, Newtons, ...)
Angles are in degrees.

endheader
time	pelvis_tilt	pelvis_list	pelvis_rotation	pelvis_tx	pelvis_ty	pelvis_tz	hip_flexion_r	hip_adduction_r	hip_rotation_r	knee_angle_r	knee_angle_r_beta	ankle_angle_r	subtalar_angle_r	mtp_angle_r	hip_flexion_l	hip_adduction_l	hip_rotation_l	knee_angle_l	knee_angle_l_beta	ankle_angle_l	subtalar_angle_l	mtp_angle_l	lumbar_extension	lumbar_bending	lumbar_rotation	arm_flex_r	arm_add_r	arm_rot_r	elbow_flex_r	pro_sup_r	wrist_flex_r	wrist_dev_r	arm_flex_l	arm_add_l	arm_rot_l	elbow_flex_l	pro_sup_l	wrist_flex_l	wrist_dev_l
     28.15114286	     -4.17579206	     -2.06546893	     -2.88467893	      1.10015110	      0.92149471	      0.42198913	     29.85868184	     -2.88226969	    -14.78990815	     13.34181084	     13.34181084	      3.05647161	      2.57928976	     12.07347711	     -2.82187802	     -0.37380277	    -16.75397544	     10.10494258	     10.10494258	     18.46476676	     -0.13222641	     -6.25324216	     -9.02767336	      4.95828427	      2.18527169	    -17.37886031	    -11.68763852	    -27.59716722	     18.06167501	     48.31316290	      0.00000000	      0.00000000	     32.30690482	    -20.76550397	     -1.11638183	     73.13845028	     47.13184721	      0.00000000	      0.00000000
     28.16228571	     -4.15611470	     -1.95729454	     -2.85061926	      1.10146454	      0.91980814	      0.42345726	     29.61391618	     -2.70639298	    -15.09338876	     13.26446799	     13.26446799	      3.27241976	      2.21814130	     12.01190627	     -3.62981962	     -0.33690552	    -16.82962472	     10.01945823	     10.01945823	     18.96336941	      0.26487404	     -6.09680619	     -8.91452350	      4.78896834	      2.41717147	    -18.67761554	    -11.56755391	    -27.69046475	     18.25027968	     48.29235895	      0.00000000	      0.00000000	     32.03613285	    -20.65648986	     -1.59923462	     75.79791721	     47.22187454	      0.00000000	      0.00000000
     28.17342857	     -4.23173199	     -1.86867851	     -2.75690582	      1.10281141	      0.91797092	      0.42499314	     29.50935673	     -2.56356416	    -15.10297919	     13.61376051	     13.61376051	      3.11467924	      1.31988455	     11.12561627	     -4.18101294	     -0.40136042	    -16.89200044	     10.24177331	     10.24177331	     19.63432481	      0.68353301	     -5.71255780	     -8.67671811	      4.64158376	      2.20755698	    -19.71864881	    -11.48000846	    -27.75253252	     18.82889406	     48.24778594	      0.00000000	      0.00000000	     31.30338539	    -20.91959021	     -2.35371486	     78.68649685	     47.33766668	      0.00000000	      0.00000000
     28.18457143	     -4.23972614	     -1.93441243	     -2.61625431	      1.10437921	      0.91634377	      0.42662621	     29.35461374	     -2.37358709	    -15.16080968	     14.37946951	     14.37946951	      2.94750482	      0.44728745	     10.28066380	     -4.79366822	     -0.64346592	    -16.79718212	     10.51224458	     10.51224458	     20.16519394	      0.81069546	     -5.53319686	     -8.44376321	      4.72232064	      2.17843212	    -20.47878253	    -11.46079980	    -27.74610375	     18.84134133	     48.23269868	      0.00000000	      0.00000000	     30.96196243	    -20.92215403	     -2.73264389	     80.02272955	     47.39341379	      0.00000000	      0.00000000
     28.19571429	     -4.35249424	     -1.81796870	     -2.43400305	      1.10587635	      0.91460355	      0.42825230	     29.35270525	     -2.35581652	    -14.66139843	     15.32228784	     15.32228784	      2.26268189	     -1.14172195	      8.34363176	     -5.11387862	     -0.77186105	    -16.74802757	     11.11208580	     11.11208580	     20.86917801	      1.13085662	     -5.04028505	     -8.15193647	      4.53110566	      2.12427127	    -21.22700983	    -11.32122461	    -27.69610737	     19.06318314	     48.19788859	      0.00000000	      0.00000000	     30.21836635	    -20.84278221	     -3.39289261	     82.58746485	     47.49376594	      0.00000000	      0.00000000
     28.20685714	     -4.27824707	     -1.95878522	     -2.18172061	      1.10776670	      0.91336682	      0.43008155	     28.80435098	     -2.04666018	    -14.26067333	     15.75066989	     15.75066989	      0.28414847	     -3.03132075	      3.15871236	     -5.56208831	     -1.28014542	    -16.91698345	     11.98516432	     11.98516432	     21.99405438	      1.89176579	     -3.63760436	     -8.06055365	      4.65505887	      1.15444223	    -21.23053382	    -11.55782207	    -27.23983529	     19.53438427	     48.10143021	      0.00000000	      0.00000000	     28.34074821	    -21.45079391	     -5.08676601	     85.79018197	     47.69604963	      0.00000000	      0.00000000
     28.21800000	     -4.28808034	     -2.02825197	     -1.94913831	      1.10950923	      0.91217277	      0.43183885	     28.63148998	     -1.92411175	    -13.78652181	     16.81423664	     16.81423664	     -0.80700574	     -4.77356908	      0.12211470	     -5.84332211	     -1.67367819	    -16.70187698	     12.88985493	     12.88985493	     22.55642663	      1.83928840	     -3.17016566	     -7.82608638	      4.71717756	      1.10805197	    -21.36450100	    -11.57528802	    -26.58722356	     18.97072067	     48.03812092	      0.00000000	      0.00000000	     27.58141822	    -21.12958077	     -5.60885809	     87.14098306	     47.79540278	      0.00000000	      0.00000000
     28.22914286	     -4.30643396	     -2.09613103	     -1.68852876	      1.11114958	      0.91126728	      0.43360961	     28.60011381	     -1.90103468	    -13.47500495	     18.20668736	     18.20668736	     -0.97391430	     -5.93158860	     -0.89460655	     -5.97285752	     -2.09760697	    -16.31989226	     14.00260644	     14.00260644	     22.76686006	      1.45169313	     -3.31530294	     -7.62990307	      4.81328025	      1.27257595	    -21.48377678	    -11.53082335	    -26.40780508	     18.77513903	     48.02195922	      0.00000000	      0.00000000	     26.86671084	    -20.73281816	     -5.81624869	     88.14506065	     47.84035458	      0.00000000	      0.00000000
     28.24028571	     -4.25455986	     -2.21996004	     -1.43117526	      1.11283493	      0.91084218	      0.43550864	     28.35968669	     -1.76915166	    -13.06643301	     19.31722926	     19.31722926	     -1.37779091	     -7.30683444	     -2.77681077	     -6.03738102	     -2.62782945	    -15.90044666	     15.36211738	     15.36211738	     22.71813217	      0.86951234	     -3.75225485	     -7.53030308	      4.92725727	      0.91353692	    -20.91090161	    -11.68286306	    -25.95596215	     18.30333231	     47.99794708	      0.00000000	      0.00000000	     25.42953626	    -20.57099747	     -6.80036592	     89.84147960	     47.97197459	      0.00000000	      0.00000000
     28.25142857	     -4.21939533	     -2.36087187	     -1.15636853	      1.11424137	      0.91076954	      0.43733818	     28.19351286	     -1.70098749	    -12.91525972	     20.54561049	     20.54561049	     -1.02813071	     -8.00713603	     -3.21759695	     -5.78925135	     -3.22741448	    -15.32907730	     17.20771132	     17.20771132	     22.53045651	     -0.04862429	     -4.21523481	     -7.45399390	      5.11397477	      1.22551155	    -20.65919417	    -11.62257001	    -25.85680600	     18.15843879	     47.99732629	      0.00000000	      0.00000000	     24.66789979	    -19.97529297	     -6.81058878	     90.26813116	     47.98443611	      0.00000000	      0.00000000
     28.26257143	     -4.16019906	     -2.54596438	     -0.87387251	      1.11553952	      0.91113339	      0.43924656	     27.88729340	     -1.55509228	    -12.79558786	     21.52921312	     21.52921312	     -0.51740173	     -8.62537930	     -3.58123458	     -5.35126855	     -3.90587037	    -14.64185766	     19.38673566	     19.38673566	     21.93168974	     -1.35923738	     -5.09365147	     -7.41255413	      5.31473279	      1.33633370	    -20.07375080	    -11.64917811	    -25.74264149	     17.98600789	     48.00256046	      0.00000000	      0.00000000	     23.55662236	    -19.43229795	     -7.02969967	     90.78405884	     48.01240540	      0.00000000	      0.00000000
     28.27371429	     -4.04923934	     -2.74470489	     -0.56464130	      1.11668436	      0.91193672	      0.44112837	     27.39850861	     -1.41755116	    -12.90950128	     22.26595222	     22.26595222	      0.16960013	     -8.87473162	     -3.89485198	     -4.68631861	     -4.64722036	    -13.89141474	     22.02621423	     22.02621423	     21.09336931	     -2.83497831	     -5.99245401	     -7.48862201	      5.54350223	      1.53081679	    -19.31387134	    -11.66361842	    -25.64975232	     17.93567256	     48.00583909	      0.00000000	      0.00000000	     22.47965222	    -18.84838889	     -7.14529480	     90.99693957	     48.02392514	      0.00000000	      0.00000000
     28.28485714	     -3.85331477	     -3.02148901	     -0.24485542	      1.11759901	      0.91315589	      0.44309668	     26.73488625	     -1.19574618	    -13.17707439	     22.81777979	     22.81777979	      0.94547218	     -8.90184298	     -4.17518809	     -3.82942063	     -5.51664323	    -13.10848203	     25.10309230	     25.10309230	     19.92264425	     -4.57507655	     -6.87707578	     -7.67043280	      5.84373378	      1.71142550	    -18.39225368	    -11.74898651	    -25.56636849	     17.98225544	     48.00746638	      0.00000000	      0.00000000	     21.37416725	    -18.23501317	     -7.19711377	     90.99146418	     48.02527713	      0.00000000	      0.00000000
     28.29600000	     -3.89270651	     -3.14267293	      0.10305264	      1.11813302	      0.91438257	      0.44477404	     26.24677823	     -1.18339985	    -13.63429488	     23.21814688	     23.21814688	      2.17037537	     -8.33370765	     -3.42013476	     -2.65697563	     -5.99663076	    -11.70387076	     27.79517809	     27.79517809	     15.87473838	     -8.69793119	    -12.95603344	     -7.58950594	      5.94228006	      0.89147500	    -16.10591684	    -12.15618490	    -25.02394313	     16.53555231	     48.07957407	      0.00000000	      0.00000000	     19.04972289	    -17.67736007	     -8.89601944	     91.86289074	     48.18340334	      0.00000000	      0.00000000
     28.30714286	     -3.65822345	     -3.45432283	      0.45062249	      1.11862317	      0.91609850	      0.44671370	     25.26249705	     -0.88145021	    -14.16082959	     23.19927819	     23.19927819	      2.96007247	     -7.98022601	     -3.70859892	     -1.30445902	     -6.96396570	    -10.96963445	     31.64638516	     31.64638516	     14.31666371	    -10.41835715	    -13.10769712	     -7.87171183	      6.28145767	      1.21385477	    -15.01909508	    -12.18525422	    -24.95424284	     16.88990219	     48.06981372	      0.00000000	      0.00000000	     17.93969495	    -16.98333137	     -8.59778200	     91.27347730	     48.14985958	      0.00000000	      0.00000000
     28.31828571	     -3.67509472	     -3.57435955	      0.85319614	      1.11875390	      0.91765077	      0.44834213	     24.47757463	     -0.86252007	    -14.96964210	     23.04306013	     23.04306013	      3.82267961	     -7.00692864	     -3.91048496	      0.54073688	     -7.49286804	     -9.64155336	     35.57671911	     35.57671911	     12.12865896	    -13.23746035	    -13.05503806	     -7.80313718	      6.40418079	      1.20926021	    -13.67169379	    -12.27188800	    -24.80917730	     17.26514384	     48.05692578	      0.00000000	      0.00000000	     16.57237939	    -16.28466139	     -8.61318251	     90.08342440	     48.13021104	      0.00000000	      0.00000000
     28.32942857	     -3.52187756	     -3.90938640	      1.23064906	      1.11881533	      0.91937585	      0.45022012	     23.38884860	     -0.48952302	    -15.68944775	     22.61219615	     22.61219615	      4.51961322	     -6.37011669	     -4.06945345	      2.36394717	     -8.42421643	     -8.80912707	     39.71014780	     39.71014780	     10.19708199	    -14.89300787	    -12.65397286	     -7.99530176	      6.73761109	      1.47065923	    -12.31762498	    -12.36776390	    -24.71045798	     17.75102605	     48.03908542	      0.00000000	      0.00000000	     15.33178602	    -15.54279470	     -8.32647365	     89.19315639	     48.09090551	      0.00000000	      0.00000000
